<svg width="24" height="25" viewBox="0 0 24 25" fill="none" xmlns="http://www.w3.org/2000/svg">
<g clip-path="url(#clip0_502_1159)">
<path d="M16.813 6.91669L16.8144 6.91861L17.742 8.22611L16.8154 6.92108L16.7909 6.88661C16.7985 6.89649 16.8059 6.90652 16.813 6.91669ZM16.8154 18.0789L17.7427 16.7728L16.8144 18.0814L16.813 18.0833C16.8059 18.0935 16.7985 18.1035 16.7909 18.1134L16.8154 18.0789Z" stroke="#1D1D1D" stroke-width="2"/>
<path d="M16.813 6.91669L16.8144 6.91861L17.742 8.22611L16.8154 6.92108L16.7909 6.88661C16.7985 6.89649 16.8059 6.90652 16.813 6.91669ZM16.8154 18.0789L17.7427 16.7728L16.8144 18.0814L16.813 18.0833C16.8059 18.0935 16.7985 18.1035 16.7909 18.1134L16.8154 18.0789Z" fill="white" stroke="white" stroke-width="2"/>
</g>
<defs>
<clipPath id="clip0_502_1159">
<rect width="24" height="24" fill="white" transform="translate(0 0.5)"/>
</clipPath>
</defs>
</svg>
