<svg width="105" height="34" viewBox="0 0 105 34" fill="none" xmlns="http://www.w3.org/2000/svg">
<path d="M8.20312 17.5117H3.82031L3.79688 15.0977H7.47656C8.125 15.0977 8.65625 15.0156 9.07031 14.8516C9.48438 14.6797 9.79297 14.4336 9.99609 14.1133C10.207 13.7852 10.3125 13.3867 10.3125 12.918C10.3125 12.3867 10.2109 11.957 10.0078 11.6289C9.8125 11.3008 9.50391 11.0625 9.08203 10.9141C8.66797 10.7656 8.13281 10.6914 7.47656 10.6914H5.03906V25H1.52344V7.9375H7.47656C8.46875 7.9375 9.35547 8.03125 10.1367 8.21875C10.9258 8.40625 11.5938 8.69141 12.1406 9.07422C12.6875 9.45703 13.1055 9.94141 13.3945 10.5273C13.6836 11.1055 13.8281 11.793 13.8281 12.5898C13.8281 13.293 13.668 13.9414 13.3477 14.5352C13.0352 15.1289 12.5391 15.6133 11.8594 15.9883C11.1875 16.3633 10.3086 16.5703 9.22266 16.6094L8.20312 17.5117ZM8.05078 25H2.85938L4.23047 22.2578H8.05078C8.66797 22.2578 9.17188 22.1602 9.5625 21.9648C9.95312 21.7617 10.2422 21.4883 10.4297 21.1445C10.6172 20.8008 10.7109 20.4062 10.7109 19.9609C10.7109 19.4609 10.625 19.0273 10.4531 18.6602C10.2891 18.293 10.0234 18.0117 9.65625 17.8164C9.28906 17.6133 8.80469 17.5117 8.20312 17.5117H4.81641L4.83984 15.0977H9.05859L9.86719 16.0469C10.9062 16.0312 11.7422 16.2148 12.375 16.5977C13.0156 16.9727 13.4805 17.4609 13.7695 18.0625C14.0664 18.6641 14.2148 19.3086 14.2148 19.9961C14.2148 21.0898 13.9766 22.0117 13.5 22.7617C13.0234 23.5039 12.3242 24.0625 11.4023 24.4375C10.4883 24.8125 9.37109 25 8.05078 25ZM24.1406 21.9648V12.3203H27.5156V25H24.3398L24.1406 21.9648ZM24.5156 19.3633L25.5117 19.3398C25.5117 20.1836 25.4141 20.9688 25.2188 21.6953C25.0234 22.4141 24.7305 23.0391 24.3398 23.5703C23.9492 24.0938 23.457 24.5039 22.8633 24.8008C22.2695 25.0898 21.5703 25.2344 20.7656 25.2344C20.1484 25.2344 19.5781 25.1484 19.0547 24.9766C18.5391 24.7969 18.0938 24.5195 17.7188 24.1445C17.3516 23.7617 17.0625 23.2734 16.8516 22.6797C16.6484 22.0781 16.5469 21.3555 16.5469 20.5117V12.3203H19.9219V20.5352C19.9219 20.9102 19.9648 21.2266 20.0508 21.4844C20.1445 21.7422 20.2734 21.9531 20.4375 22.1172C20.6016 22.2812 20.793 22.3984 21.0117 22.4688C21.2383 22.5391 21.4883 22.5742 21.7617 22.5742C22.457 22.5742 23.0039 22.4336 23.4023 22.1523C23.8086 21.8711 24.0938 21.4883 24.2578 21.0039C24.4297 20.5117 24.5156 19.9648 24.5156 19.3633ZM37.582 22.2344V7H40.9805V25H37.9219L37.582 22.2344ZM29.5664 18.8125V18.5664C29.5664 17.5977 29.6758 16.7188 29.8945 15.9297C30.1133 15.1328 30.4336 14.4492 30.8555 13.8789C31.2773 13.3086 31.7969 12.8672 32.4141 12.5547C33.0312 12.2422 33.7344 12.0859 34.5234 12.0859C35.2656 12.0859 35.9141 12.2422 36.4688 12.5547C37.0312 12.8672 37.5078 13.3125 37.8984 13.8906C38.2969 14.4609 38.6172 15.1367 38.8594 15.918C39.1016 16.6914 39.2773 17.5391 39.3867 18.4609V19C39.2773 19.8828 39.1016 20.7031 38.8594 21.4609C38.6172 22.2188 38.2969 22.8828 37.8984 23.4531C37.5078 24.0156 37.0312 24.4531 36.4688 24.7656C35.9062 25.0781 35.25 25.2344 34.5 25.2344C33.7109 25.2344 33.0078 25.0742 32.3906 24.7539C31.7812 24.4336 31.2656 23.9844 30.8438 23.4062C30.4297 22.8281 30.1133 22.1484 29.8945 21.3672C29.6758 20.5859 29.5664 19.7344 29.5664 18.8125ZM32.9414 18.5664V18.8125C32.9414 19.3359 32.9805 19.8242 33.0586 20.2773C33.1445 20.7305 33.2812 21.1328 33.4688 21.4844C33.6641 21.8281 33.9141 22.0977 34.2188 22.293C34.5312 22.4805 34.9102 22.5742 35.3555 22.5742C35.9336 22.5742 36.4102 22.4453 36.7852 22.1875C37.1602 21.9219 37.4453 21.5586 37.6406 21.0977C37.8438 20.6367 37.9609 20.1055 37.9922 19.5039V17.9688C37.9688 17.4766 37.8984 17.0352 37.7812 16.6445C37.6719 16.2461 37.5078 15.9062 37.2891 15.625C37.0781 15.3438 36.8125 15.125 36.4922 14.9688C36.1797 14.8125 35.8086 14.7344 35.3789 14.7344C34.9414 14.7344 34.5664 14.8359 34.2539 15.0391C33.9414 15.2344 33.6875 15.5039 33.4922 15.8477C33.3047 16.1914 33.1641 16.5977 33.0703 17.0664C32.9844 17.5273 32.9414 18.0273 32.9414 18.5664ZM51.6445 12.3203H54.7031V24.5781C54.7031 25.7344 54.4453 26.7148 53.9297 27.5195C53.4219 28.332 52.7109 28.9453 51.7969 29.3594C50.8828 29.7812 49.8203 29.9922 48.6094 29.9922C48.0781 29.9922 47.5156 29.9219 46.9219 29.7812C46.3359 29.6406 45.7734 29.4219 45.2344 29.125C44.7031 28.8281 44.2578 28.4531 43.8984 28L45.3867 26.0078C45.7773 26.4609 46.2305 26.8125 46.7461 27.0625C47.2617 27.3203 47.832 27.4492 48.457 27.4492C49.0664 27.4492 49.582 27.3359 50.0039 27.1094C50.4258 26.8906 50.75 26.5664 50.9766 26.1367C51.2031 25.7148 51.3164 25.2031 51.3164 24.6016V15.25L51.6445 12.3203ZM43.1133 18.8125V18.5664C43.1133 17.5977 43.2305 16.7188 43.4648 15.9297C43.707 15.1328 44.0469 14.4492 44.4844 13.8789C44.9297 13.3086 45.4688 12.8672 46.1016 12.5547C46.7344 12.2422 47.4492 12.0859 48.2461 12.0859C49.0898 12.0859 49.7969 12.2422 50.3672 12.5547C50.9375 12.8672 51.4062 13.3125 51.7734 13.8906C52.1406 14.4609 52.4258 15.1367 52.6289 15.918C52.8398 16.6914 53.0039 17.5391 53.1211 18.4609V19C53.0039 19.8828 52.8281 20.7031 52.5938 21.4609C52.3594 22.2188 52.0508 22.8828 51.668 23.4531C51.2852 24.0156 50.8086 24.4531 50.2383 24.7656C49.6758 25.0781 49.0039 25.2344 48.2227 25.2344C47.4414 25.2344 46.7344 25.0742 46.1016 24.7539C45.4766 24.4336 44.9414 23.9844 44.4961 23.4062C44.0508 22.8281 43.707 22.1484 43.4648 21.3672C43.2305 20.5859 43.1133 19.7344 43.1133 18.8125ZM46.4883 18.5664V18.8125C46.4883 19.3359 46.5391 19.8242 46.6406 20.2773C46.7422 20.7305 46.8984 21.1328 47.1094 21.4844C47.3281 21.8281 47.5977 22.0977 47.918 22.293C48.2461 22.4805 48.6328 22.5742 49.0781 22.5742C49.6953 22.5742 50.1992 22.4453 50.5898 22.1875C50.9805 21.9219 51.2734 21.5586 51.4688 21.0977C51.6641 20.6367 51.7773 20.1055 51.8086 19.5039V17.9688C51.793 17.4766 51.7266 17.0352 51.6094 16.6445C51.4922 16.2461 51.3281 15.9062 51.1172 15.625C50.9062 15.3438 50.6328 15.125 50.2969 14.9688C49.9609 14.8125 49.5625 14.7344 49.1016 14.7344C48.6562 14.7344 48.2695 14.8359 47.9414 15.0391C47.6211 15.2344 47.3516 15.5039 47.1328 15.8477C46.9219 16.1914 46.7617 16.5977 46.6523 17.0664C46.543 17.5273 46.4883 18.0273 46.4883 18.5664ZM63.1641 25.2344C62.1797 25.2344 61.2969 25.0781 60.5156 24.7656C59.7344 24.4453 59.0703 24.0039 58.5234 23.4414C57.9844 22.8789 57.5703 22.2266 57.2812 21.4844C56.9922 20.7344 56.8477 19.9375 56.8477 19.0938V18.625C56.8477 17.6641 56.9844 16.7852 57.2578 15.9883C57.5312 15.1914 57.9219 14.5 58.4297 13.9141C58.9453 13.3281 59.5703 12.8789 60.3047 12.5664C61.0391 12.2461 61.8672 12.0859 62.7891 12.0859C63.6875 12.0859 64.4844 12.2344 65.1797 12.5312C65.875 12.8281 66.457 13.25 66.9258 13.7969C67.4023 14.3438 67.7617 15 68.0039 15.7656C68.2461 16.5234 68.3672 17.3672 68.3672 18.2969V19.7031H58.2891V17.4531H65.0508V17.1953C65.0508 16.7266 64.9648 16.3086 64.793 15.9414C64.6289 15.5664 64.3789 15.2695 64.043 15.0508C63.707 14.832 63.2773 14.7227 62.7539 14.7227C62.3086 14.7227 61.9258 14.8203 61.6055 15.0156C61.2852 15.2109 61.0234 15.4844 60.8203 15.8359C60.625 16.1875 60.4766 16.6016 60.375 17.0781C60.2812 17.5469 60.2344 18.0625 60.2344 18.625V19.0938C60.2344 19.6016 60.3047 20.0703 60.4453 20.5C60.5938 20.9297 60.8008 21.3008 61.0664 21.6133C61.3398 21.9258 61.668 22.168 62.0508 22.3398C62.4414 22.5117 62.8828 22.5977 63.375 22.5977C63.9844 22.5977 64.5508 22.4805 65.0742 22.2461C65.6055 22.0039 66.0625 21.6406 66.4453 21.1562L68.0859 22.9375C67.8203 23.3203 67.457 23.6875 66.9961 24.0391C66.543 24.3906 65.9961 24.6797 65.3555 24.9062C64.7148 25.125 63.9844 25.2344 63.1641 25.2344ZM76.5 12.3203V14.7109H69.1172V12.3203H76.5ZM70.9453 9.19141H74.3203V21.1797C74.3203 21.5469 74.3672 21.8281 74.4609 22.0234C74.5625 22.2188 74.7109 22.3555 74.9062 22.4336C75.1016 22.5039 75.3477 22.5391 75.6445 22.5391C75.8555 22.5391 76.043 22.5312 76.207 22.5156C76.3789 22.4922 76.5234 22.4688 76.6406 22.4453L76.6523 24.9297C76.3633 25.0234 76.0508 25.0977 75.7148 25.1523C75.3789 25.207 75.0078 25.2344 74.6016 25.2344C73.8594 25.2344 73.2109 25.1133 72.6562 24.8711C72.1094 24.6211 71.6875 24.2227 71.3906 23.6758C71.0938 23.1289 70.9453 22.4102 70.9453 21.5195V9.19141ZM81.9844 12.3203V25H78.5977V12.3203H81.9844ZM78.3867 9.01562C78.3867 8.52344 78.5586 8.11719 78.9023 7.79688C79.2461 7.47656 79.707 7.31641 80.2852 7.31641C80.8555 7.31641 81.3125 7.47656 81.6562 7.79688C82.0078 8.11719 82.1836 8.52344 82.1836 9.01562C82.1836 9.50781 82.0078 9.91406 81.6562 10.2344C81.3125 10.5547 80.8555 10.7148 80.2852 10.7148C79.707 10.7148 79.2461 10.5547 78.9023 10.2344C78.5586 9.91406 78.3867 9.50781 78.3867 9.01562ZM89.0742 25H85.6758V11.1953C85.6758 10.2344 85.8633 9.42578 86.2383 8.76953C86.6211 8.10547 87.1562 7.60547 87.8438 7.26953C88.5391 6.92578 89.3633 6.75391 90.3164 6.75391C90.6289 6.75391 90.9297 6.77734 91.2188 6.82422C91.5078 6.86328 91.7891 6.91406 92.0625 6.97656L92.0273 9.51953C91.8789 9.48047 91.7227 9.45312 91.5586 9.4375C91.3945 9.42188 91.2031 9.41406 90.9844 9.41406C90.5781 9.41406 90.2305 9.48438 89.9414 9.625C89.6602 9.75781 89.4453 9.95703 89.2969 10.2227C89.1484 10.4883 89.0742 10.8125 89.0742 11.1953V25ZM91.6055 12.3203V14.7109H83.7891V12.3203H91.6055ZM97.1367 23.5703L100.5 12.3203H104.121L99.0234 26.9102C98.9141 27.2305 98.7656 27.5742 98.5781 27.9414C98.3984 28.3086 98.1523 28.6562 97.8398 28.9844C97.5352 29.3203 97.1484 29.5938 96.6797 29.8047C96.2188 30.0156 95.6523 30.1211 94.9805 30.1211C94.6602 30.1211 94.3984 30.1016 94.1953 30.0625C93.9922 30.0234 93.75 29.9688 93.4688 29.8984V27.4258C93.5547 27.4258 93.6445 27.4258 93.7383 27.4258C93.832 27.4336 93.9219 27.4375 94.0078 27.4375C94.4531 27.4375 94.8164 27.3867 95.0977 27.2852C95.3789 27.1836 95.6055 27.0273 95.7773 26.8164C95.9492 26.6133 96.0859 26.3477 96.1875 26.0195L97.1367 23.5703ZM95.7305 12.3203L98.4844 21.5078L98.9648 25.082L96.668 25.3281L92.1094 12.3203H95.7305Z" fill="#ffffff"/>
</svg>
