<svg width="24" height="25" viewBox="0 0 24 25" fill="none" xmlns="http://www.w3.org/2000/svg">
<g id="icon/history" clip-path="url(#clip0_219_780)">
<path id="Vector" d="M13 3.5C8.03 3.5 4 7.53 4 12.5H1L4.89 16.39L4.96 16.53L9 12.5H6C6 8.63 9.13 5.5 13 5.5C16.87 5.5 20 8.63 20 12.5C20 16.37 16.87 19.5 13 19.5C11.07 19.5 9.32 18.71 8.06 17.44L6.64 18.86C8.27 20.49 10.51 21.5 13 21.5C17.97 21.5 22 17.47 22 12.5C22 7.53 17.97 3.5 13 3.5ZM12 8.5V13.5L16.28 16.04L17 14.83L13.5 12.75V8.5H12Z" fill="#1D1D1D"/>
<path id="Vector_2" d="M13 3.5C8.03 3.5 4 7.53 4 12.5H1L4.89 16.39L4.96 16.53L9 12.5H6C6 8.63 9.13 5.5 13 5.5C16.87 5.5 20 8.63 20 12.5C20 16.37 16.87 19.5 13 19.5C11.07 19.5 9.32 18.71 8.06 17.44L6.64 18.86C8.27 20.49 10.51 21.5 13 21.5C17.97 21.5 22 17.47 22 12.5C22 7.53 17.97 3.5 13 3.5ZM12 8.5V13.5L16.28 16.04L17 14.83L13.5 12.75V8.5H12Z" fill="#081421"/>
</g>
<defs>
<clipPath id="clip0_219_780">
<rect width="24" height="24" fill="white" transform="translate(0 0.5)"/>
</clipPath>
</defs>
</svg>
