<svg width="12" height="12" viewBox="0 0 12 12" fill="none" xmlns="http://www.w3.org/2000/svg">
<g id="filter-24-filled 1">
<path id="Vector" d="M5.00042 8H7.00042C7.12786 8.00014 7.25044 8.04894 7.34311 8.13642C7.43577 8.22391 7.49154 8.34348 7.49901 8.4707C7.50648 8.59792 7.46509 8.72319 7.38329 8.82092C7.3015 8.91864 7.18547 8.98145 7.05892 8.9965L7.00042 9H5.00042C4.87298 8.99986 4.75041 8.95106 4.65774 8.86358C4.56507 8.77609 4.5093 8.65652 4.50184 8.5293C4.49437 8.40208 4.53576 8.27681 4.61755 8.17908C4.69935 8.08136 4.81537 8.01855 4.94192 8.0035L5.00042 8ZM4.00042 5.5H8.00042C8.12786 5.50014 8.25044 5.54894 8.34311 5.63642C8.43577 5.72391 8.49154 5.84348 8.49901 5.9707C8.50648 6.09792 8.46509 6.22319 8.38329 6.32092C8.3015 6.41864 8.18547 6.48145 8.05892 6.4965L8.00042 6.5H4.00042C3.87298 6.49986 3.75041 6.45106 3.65774 6.36358C3.56507 6.27609 3.50931 6.15652 3.50184 6.0293C3.49437 5.90208 3.53576 5.77681 3.61755 5.67908C3.69935 5.58136 3.81537 5.51855 3.94192 5.5035L4.00042 5.5ZM2.50042 3H9.50042C9.62786 3.00014 9.75044 3.04894 9.84311 3.13642C9.93577 3.22391 9.99154 3.34348 9.99901 3.4707C10.0065 3.59792 9.96509 3.72319 9.88329 3.82092C9.8015 3.91864 9.68547 3.98145 9.55892 3.9965L9.50042 4H2.50042C2.37298 3.99986 2.25041 3.95106 2.15774 3.86358C2.06507 3.77609 2.00931 3.65652 2.00184 3.5293C1.99437 3.40208 2.03576 3.27681 2.11755 3.17908C2.19935 3.08136 2.31537 3.01855 2.44192 3.0035L2.50042 3Z" fill="black"/>
</g>
</svg>
