<svg width="18" height="18" viewBox="0 0 18 18" fill="none" xmlns="http://www.w3.org/2000/svg">
<path id="Vector" d="M8.16699 13.9993H9.83366V12.3327H8.16699V13.9993ZM9.00033 0.666016C4.40033 0.666016 0.666992 4.39935 0.666992 8.99935C0.666992 13.5993 4.40033 17.3327 9.00033 17.3327C13.6003 17.3327 17.3337 13.5993 17.3337 8.99935C17.3337 4.39935 13.6003 0.666016 9.00033 0.666016ZM9.00033 15.666C5.32533 15.666 2.33366 12.6743 2.33366 8.99935C2.33366 5.32435 5.32533 2.33268 9.00033 2.33268C12.6753 2.33268 15.667 5.32435 15.667 8.99935C15.667 12.6743 12.6753 15.666 9.00033 15.666ZM9.00033 3.99935C7.15866 3.99935 5.66699 5.49102 5.66699 7.33268H7.33366C7.33366 6.41602 8.08366 5.66602 9.00033 5.66602C9.91699 5.66602 10.667 6.41602 10.667 7.33268C10.667 8.99935 8.16699 8.79102 8.16699 11.4993H9.83366C9.83366 9.62435 12.3337 9.41602 12.3337 7.33268C12.3337 5.49102 10.842 3.99935 9.00033 3.99935Z" fill="#1D1D1D"/>
</svg>
