<svg width="14" height="17" viewBox="0 0 14 17" fill="none" xmlns="http://www.w3.org/2000/svg">
<path id="Vector" d="M6.99967 16.334C7.91634 16.334 8.66634 15.584 8.66634 14.6673H5.33301C5.33301 15.584 6.08301 16.334 6.99967 16.334ZM11.9997 11.334V7.16732C11.9997 4.60898 10.6413 2.46732 8.24967 1.90065V1.33398C8.24967 0.642318 7.69134 0.0839844 6.99967 0.0839844C6.30801 0.0839844 5.74967 0.642318 5.74967 1.33398V1.90065C3.36634 2.46732 1.99967 4.60065 1.99967 7.16732V11.334L0.333008 13.0007V13.834H13.6663V13.0007L11.9997 11.334ZM10.333 12.1673H3.66634V7.16732C3.66634 5.10065 4.92467 3.41732 6.99967 3.41732C9.07467 3.41732 10.333 5.10065 10.333 7.16732V12.1673Z" fill="#1D1D1D"/>
</svg>
