<svg width="32" height="33" viewBox="0 0 32 33" fill="none" xmlns="http://www.w3.org/2000/svg">
<path d="M22.6667 28.5H9.33333M22.6667 28.5H23.7373C25.228 28.5 25.9733 28.5 26.5427 28.2093C27.0453 27.9533 27.4533 27.5453 27.7093 27.044C28 26.4747 28 25.728 28 24.2373V12.7933C28 12.1933 28 11.8933 27.936 11.608C27.8793 11.3534 27.7854 11.1086 27.6573 10.8813C27.516 10.628 27.316 10.408 26.924 9.972L23.2507 5.88933C22.796 5.38533 22.5653 5.12933 22.2893 4.94533C22.0404 4.78016 21.7654 4.65801 21.476 4.584C21.1507 4.5 20.8 4.5 20.1 4.5H8.26667C6.77333 4.5 6.02667 4.5 5.456 4.79067C4.9542 5.04625 4.54625 5.4542 4.29067 5.956C4 6.52667 4 7.27333 4 8.76667V24.2333C4 25.7267 4 26.4733 4.29067 27.0427C4.54667 27.5453 4.95333 27.9533 5.456 28.2093C6.02533 28.5 6.772 28.5 8.26267 28.5H9.33333M22.6667 28.5V23.4293C22.6667 21.9387 22.6667 21.192 22.376 20.6227C22.1199 20.1208 21.7115 19.7128 21.2093 19.4573C20.64 19.1667 19.8933 19.1667 18.4 19.1667H13.6C12.1067 19.1667 11.36 19.1667 10.7893 19.4573C10.2875 19.7129 9.87958 20.1209 9.624 20.6227C9.33333 21.1933 9.33333 21.94 9.33333 23.4333V28.5M20 9.83333H12" stroke="#163A5F" stroke-width="2" stroke-linecap="round" stroke-linejoin="round"/>
</svg>
