<svg width="32" height="32" viewBox="0 0 32 32" fill="none" xmlns="http://www.w3.org/2000/svg">
<g clip-path="url(#clip0_42_208)">
<path d="M16.8231 30.6969C16.2935 30.9012 15.7069 30.9012 15.1774 30.6969C11.0418 29.0753 7.49079 26.2452 4.98737 22.5757C2.48395 18.9062 1.14429 14.5675 1.14307 10.1254V3.42829C1.14307 2.82208 1.38388 2.2407 1.81254 1.81205C2.24119 1.38339 2.82257 1.14258 3.42878 1.14258H28.5716C29.1778 1.14258 29.7592 1.38339 30.1879 1.81205C30.6165 2.2407 30.8574 2.82208 30.8574 3.42829V10.1026C30.8607 14.5486 29.5232 18.8923 27.0195 22.5663C24.5158 26.2403 20.9623 29.0739 16.8231 30.6969Z" stroke="#163A5F" stroke-width="2" stroke-linecap="round" stroke-linejoin="round"/>
<path d="M16.0004 18.286C19.1563 18.286 21.7147 15.7276 21.7147 12.5717C21.7147 9.41579 19.1563 6.85742 16.0004 6.85742C12.8445 6.85742 10.2861 9.41579 10.2861 12.5717C10.2861 15.7276 12.8445 18.286 16.0004 18.286Z" stroke="#163A5F" stroke-width="2" stroke-linecap="round" stroke-linejoin="round"/>
<path d="M7.42871 25.5763C8.50119 24.3602 9.82016 23.3863 11.298 22.7192C12.7758 22.052 14.3787 21.707 16.0001 21.707C17.6216 21.707 19.2244 22.052 20.7023 22.7192C22.1801 23.3863 23.4991 24.3602 24.5716 25.5763" stroke="#163A5F" stroke-width="2" stroke-linecap="round" stroke-linejoin="round"/>
</g>
<defs>
<clipPath id="clip0_42_208">
<rect width="32" height="32" fill="white"/>
</clipPath>
</defs>
</svg>
