<svg width="17" height="17" viewBox="0 0 17 17" fill="none" xmlns="http://www.w3.org/2000/svg">
<g id="1904675-configuration-edit-gear-options-preferences-setting-settings_122525 1" clip-path="url(#clip0_152_877)">
<g id="Vector">
<mask id="path-1-inside-1_152_877" fill="white">
<path d="M8.5 5.375C7.88193 5.375 7.27775 5.55828 6.76384 5.90166C6.24994 6.24504 5.8494 6.7331 5.61288 7.30411C5.37635 7.87513 5.31447 8.50347 5.43505 9.10966C5.55563 9.71585 5.85325 10.2727 6.29029 10.7097C6.72733 11.1467 7.28415 11.4444 7.89034 11.565C8.49653 11.6855 9.12487 11.6236 9.69589 11.3871C10.2669 11.1506 10.755 10.7501 11.0983 10.2362C11.4417 9.72225 11.625 9.11807 11.625 8.5C11.625 7.6712 11.2958 6.87634 10.7097 6.29029C10.1237 5.70424 9.3288 5.375 8.5 5.375ZM8.5 10.875C8.03027 10.875 7.57109 10.7357 7.18052 10.4747C6.78996 10.2138 6.48555 9.84285 6.30579 9.40887C6.12603 8.9749 6.079 8.49737 6.17064 8.03666C6.26228 7.57596 6.48847 7.15277 6.82062 6.82062C7.15277 6.48847 7.57596 6.26227 8.03666 6.17063C8.49737 6.07899 8.9749 6.12603 9.40887 6.30579C9.84285 6.48554 10.2138 6.78995 10.4747 7.18052C10.7357 7.57109 10.875 8.03027 10.875 8.5C10.875 9.12989 10.6248 9.73398 10.1794 10.1794C9.73398 10.6248 9.12989 10.875 8.5 10.875Z"/>
</mask>
<path d="M8.5 5.375V4.375V5.375ZM11.625 8.5H12.625H11.625ZM8.5 10.875V9.875V10.875ZM8.5 4.375C7.68415 4.375 6.88663 4.61693 6.20827 5.07019L7.31941 6.73313C7.66887 6.49963 8.07972 6.375 8.5 6.375V4.375ZM6.20827 5.07019C5.52992 5.52345 5.00121 6.16769 4.689 6.92143L6.53676 7.6868C6.69759 7.2985 6.96996 6.96663 7.31941 6.73313L6.20827 5.07019ZM4.689 6.92143C4.37679 7.67518 4.2951 8.50458 4.45426 9.30475L6.41583 8.91457C6.33384 8.50236 6.37592 8.07509 6.53676 7.6868L4.689 6.92143ZM4.45426 9.30475C4.61343 10.1049 5.00629 10.8399 5.58319 11.4168L6.9974 10.0026C6.70021 9.70542 6.49783 9.32678 6.41583 8.91457L4.45426 9.30475ZM5.58319 11.4168C6.16008 11.9937 6.89508 12.3866 7.69525 12.5457L8.08543 10.5842C7.67322 10.5022 7.29459 10.2998 6.9974 10.0026L5.58319 11.4168ZM7.69525 12.5457C8.49543 12.7049 9.32483 12.6232 10.0786 12.311L9.3132 10.4632C8.92491 10.6241 8.49764 10.6662 8.08543 10.5842L7.69525 12.5457ZM10.0786 12.311C10.8323 11.9988 11.4766 11.4701 11.9298 10.7917L10.2669 9.68059C10.0334 10.03 9.7015 10.3024 9.3132 10.4632L10.0786 12.311ZM11.9298 10.7917C12.3831 10.1134 12.625 9.31585 12.625 8.5H10.625C10.625 8.92029 10.5004 9.33113 10.2669 9.68059L11.9298 10.7917ZM12.625 8.5C12.625 7.40598 12.1904 6.35677 11.4168 5.58318L10.0026 6.9974C10.4011 7.39591 10.625 7.93641 10.625 8.5H12.625ZM11.4168 5.58318C10.6432 4.8096 9.59402 4.375 8.5 4.375V6.375C9.06359 6.375 9.60409 6.59888 10.0026 6.9974L11.4168 5.58318ZM8.5 9.875C8.22805 9.875 7.96221 9.79436 7.73609 9.64327L6.62495 11.3062C7.17997 11.6771 7.83249 11.875 8.5 11.875V9.875ZM7.73609 9.64327C7.50997 9.49218 7.33374 9.27744 7.22967 9.02619L5.38191 9.79156C5.63735 10.4083 6.06994 10.9354 6.62495 11.3062L7.73609 9.64327ZM7.22967 9.02619C7.1256 8.77494 7.09837 8.49847 7.15142 8.23175L5.18985 7.84157C5.05963 8.49626 5.12646 9.17486 5.38191 9.79156L7.22967 9.02619ZM7.15142 8.23175C7.20448 7.96503 7.33543 7.72003 7.52773 7.52773L6.11352 6.11351C5.64151 6.58552 5.32008 7.18688 5.18985 7.84157L7.15142 8.23175ZM7.52773 7.52773C7.72003 7.33543 7.96503 7.20447 8.23175 7.15142L7.84157 5.18985C7.18689 5.32007 6.58552 5.64151 6.11352 6.11351L7.52773 7.52773ZM8.23175 7.15142C8.49848 7.09837 8.77494 7.12559 9.02619 7.22967L9.79156 5.38191C9.17486 5.12646 8.49626 5.05962 7.84157 5.18985L8.23175 7.15142ZM9.02619 7.22967C9.27744 7.33374 9.49218 7.50997 9.64327 7.73609L11.3062 6.62495C10.9354 6.06993 10.4083 5.63735 9.79156 5.38191L9.02619 7.22967ZM9.64327 7.73609C9.79436 7.96221 9.875 8.22805 9.875 8.5H11.875C11.875 7.83249 11.6771 7.17997 11.3062 6.62495L9.64327 7.73609ZM9.875 8.5C9.875 8.86467 9.73014 9.21441 9.47227 9.47227L10.8865 10.8865C11.5194 10.2536 11.875 9.39511 11.875 8.5H9.875ZM9.47227 9.47227C9.21441 9.73013 8.86467 9.875 8.5 9.875V11.875C9.39511 11.875 10.2536 11.5194 10.8865 10.8865L9.47227 9.47227Z" fill="#1D1D1D" mask="url(#path-1-inside-1_152_877)"/>
</g>
<g id="Vector_2">
<mask id="path-3-inside-2_152_877" fill="white">
<path d="M15.625 6.5H14.5087C14.4828 6.49981 14.4575 6.49152 14.4364 6.47628C14.4154 6.46105 14.3996 6.43963 14.3912 6.415C14.3186 6.20867 14.2352 6.00631 14.1412 5.80875C14.1295 5.78544 14.1254 5.75904 14.1294 5.73326C14.1335 5.70748 14.1455 5.68361 14.1637 5.665L14.9525 4.875C15.0338 4.79375 15.0982 4.69728 15.1422 4.59112C15.1862 4.48495 15.2088 4.37116 15.2088 4.25625C15.2088 4.14134 15.1862 4.02755 15.1422 3.92138C15.0982 3.81522 15.0338 3.71875 14.9525 3.6375L13.3612 2.0475C13.28 1.96624 13.1835 1.90178 13.0774 1.8578C12.9712 1.81382 12.8574 1.79119 12.7425 1.79119C12.6276 1.79119 12.5138 1.81382 12.4076 1.8578C12.3015 1.90178 12.205 1.96624 12.1237 2.0475L11.335 2.83625C11.3164 2.85453 11.2925 2.86654 11.2667 2.87057C11.241 2.87461 11.2146 2.87047 11.1912 2.85875C10.9937 2.76481 10.7913 2.68137 10.585 2.60875C10.5604 2.60043 10.539 2.58465 10.5237 2.56359C10.5085 2.54253 10.5002 2.51724 10.5 2.49125V1.375C10.5 1.14294 10.4078 0.920376 10.2437 0.756282C10.0796 0.592187 9.85706 0.5 9.625 0.5H7.375C7.14294 0.5 6.92038 0.592187 6.75628 0.756282C6.59219 0.920376 6.5 1.14294 6.5 1.375V2.49125C6.49981 2.51724 6.49152 2.54253 6.47628 2.56359C6.46105 2.58465 6.43963 2.60043 6.415 2.60875C6.20867 2.6814 6.00631 2.76484 5.80875 2.85875C5.78544 2.87047 5.75904 2.87461 5.73326 2.87057C5.70748 2.86654 5.68361 2.85453 5.665 2.83625L4.875 2.0475C4.79375 1.96624 4.69728 1.90178 4.59112 1.8578C4.48495 1.81382 4.37116 1.79119 4.25625 1.79119C4.14134 1.79119 4.02755 1.81382 3.92138 1.8578C3.81522 1.90178 3.71875 1.96624 3.6375 2.0475L2.0475 3.63875C1.96624 3.72 1.90178 3.81647 1.8578 3.92263C1.81382 4.0288 1.79119 4.14259 1.79119 4.2575C1.79119 4.37241 1.81382 4.4862 1.8578 4.59237C1.90178 4.69853 1.96624 4.795 2.0475 4.87625L2.83625 5.665C2.85453 5.68361 2.86654 5.70748 2.87057 5.73326C2.87461 5.75904 2.87047 5.78544 2.85875 5.80875C2.76481 6.0063 2.68137 6.20866 2.60875 6.415C2.60043 6.43963 2.58465 6.46105 2.56359 6.47628C2.54253 6.49152 2.51724 6.49981 2.49125 6.5H1.375C1.14294 6.5 0.920376 6.59219 0.756282 6.75628C0.592187 6.92038 0.5 7.14294 0.5 7.375L0.5 9.625C0.5 9.85706 0.592187 10.0796 0.756282 10.2437C0.920376 10.4078 1.14294 10.5 1.375 10.5H2.49125C2.51724 10.5002 2.54253 10.5085 2.56359 10.5237C2.58465 10.539 2.60043 10.5604 2.60875 10.585C2.6814 10.7913 2.76484 10.9937 2.85875 11.1912C2.87047 11.2146 2.87461 11.241 2.87057 11.2667C2.86654 11.2925 2.85453 11.3164 2.83625 11.335L2.0475 12.125C1.96624 12.2063 1.90178 12.3027 1.8578 12.4089C1.81382 12.515 1.79119 12.6288 1.79119 12.7437C1.79119 12.8587 1.81382 12.9725 1.8578 13.0786C1.90178 13.1848 1.96624 13.2812 2.0475 13.3625L3.63875 14.9537C3.72 15.035 3.81647 15.0995 3.92263 15.1434C4.0288 15.1874 4.14259 15.2101 4.2575 15.2101C4.37241 15.2101 4.4862 15.1874 4.59237 15.1434C4.69853 15.0995 4.795 15.035 4.87625 14.9537L5.665 14.165C5.68361 14.1467 5.70748 14.1347 5.73326 14.1307C5.75904 14.1266 5.78544 14.1308 5.80875 14.1425C6.0063 14.2364 6.20866 14.3199 6.415 14.3925C6.43963 14.4008 6.46105 14.4166 6.47628 14.4377C6.49152 14.4587 6.49981 14.484 6.5 14.51V15.625C6.5 15.8571 6.59219 16.0796 6.75628 16.2437C6.92038 16.4078 7.14294 16.5 7.375 16.5H9.625C9.85706 16.5 10.0796 16.4078 10.2437 16.2437C10.4078 16.0796 10.5 15.8571 10.5 15.625V14.5087C10.5002 14.4828 10.5085 14.4575 10.5237 14.4364C10.539 14.4154 10.5604 14.3996 10.585 14.3912C10.7913 14.3186 10.9937 14.2352 11.1912 14.1412C11.2146 14.1295 11.241 14.1254 11.2667 14.1294C11.2925 14.1335 11.3164 14.1455 11.335 14.1637L12.125 14.9525C12.2063 15.0338 12.3027 15.0982 12.4089 15.1422C12.515 15.1862 12.6288 15.2088 12.7437 15.2088C12.8587 15.2088 12.9725 15.1862 13.0786 15.1422C13.1848 15.0982 13.2812 15.0338 13.3625 14.9525L14.9537 13.3612C15.035 13.28 15.0995 13.1835 15.1434 13.0774C15.1874 12.9712 15.2101 12.8574 15.2101 12.7425C15.2101 12.6276 15.1874 12.5138 15.1434 12.4076C15.0995 12.3015 15.035 12.205 14.9537 12.1237L14.165 11.335C14.1467 11.3164 14.1347 11.2925 14.1307 11.2667C14.1266 11.241 14.1308 11.2146 14.1425 11.1912C14.2364 10.9937 14.3199 10.7913 14.3925 10.585C14.4008 10.5604 14.4166 10.539 14.4377 10.5237C14.4587 10.5085 14.484 10.5002 14.51 10.5H15.625C15.8571 10.5 16.0796 10.4078 16.2437 10.2437C16.4078 10.0796 16.5 9.85706 16.5 9.625V7.375C16.5 7.14294 16.4078 6.92038 16.2437 6.75628C16.0796 6.59219 15.8571 6.5 15.625 6.5ZM15.75 9.625C15.75 9.65815 15.7368 9.68995 15.7134 9.71339C15.6899 9.73683 15.6582 9.75 15.625 9.75H14.5087C14.3274 9.7502 14.1507 9.80672 14.0029 9.91174C13.8551 10.0168 13.7436 10.1651 13.6838 10.3363C13.6198 10.5175 13.5464 10.6952 13.4637 10.8687C13.3845 11.0323 13.3582 11.2165 13.3885 11.3957C13.4187 11.5749 13.504 11.7402 13.6325 11.8687L14.4213 12.6575C14.4445 12.6809 14.4576 12.7126 14.4576 12.7456C14.4576 12.7786 14.4445 12.8103 14.4213 12.8337L12.8313 14.4225C12.8078 14.4458 12.7761 14.4588 12.7431 14.4588C12.7101 14.4588 12.6784 14.4458 12.655 14.4225L11.8663 13.6337C11.7377 13.5053 11.5724 13.42 11.3932 13.3897C11.214 13.3595 11.0298 13.3858 10.8663 13.465C10.6923 13.5477 10.5142 13.6211 10.3325 13.685C10.1616 13.745 10.0135 13.8566 9.90873 14.0044C9.80395 14.1522 9.74761 14.3288 9.7475 14.51V15.625C9.7475 15.6582 9.73433 15.6899 9.71089 15.7134C9.68745 15.7368 9.65565 15.75 9.6225 15.75H7.375C7.34185 15.75 7.31005 15.7368 7.28661 15.7134C7.26317 15.6899 7.25 15.6582 7.25 15.625V14.5087C7.2498 14.3274 7.19328 14.1507 7.08826 14.0029C6.98324 13.8551 6.8349 13.7436 6.66375 13.6838C6.48252 13.6198 6.30477 13.5464 6.13125 13.4637C5.96768 13.3845 5.78351 13.3582 5.60431 13.3885C5.42511 13.4187 5.25977 13.504 5.13125 13.6325L4.3425 14.4213C4.31908 14.4445 4.2874 14.4576 4.25437 14.4576C4.22135 14.4576 4.18967 14.4445 4.16625 14.4213L2.5775 12.8313C2.55422 12.8078 2.54115 12.7761 2.54115 12.7431C2.54115 12.7101 2.55422 12.6784 2.5775 12.655L3.36625 11.8663C3.49474 11.7377 3.58003 11.5724 3.61027 11.3932C3.64051 11.214 3.6142 11.0298 3.535 10.8663C3.45235 10.6923 3.37891 10.5142 3.315 10.3325C3.25462 10.1623 3.14302 10.0149 2.99553 9.91057C2.84804 9.80628 2.67189 9.75019 2.49125 9.75H1.375C1.34185 9.75 1.31005 9.73683 1.28661 9.71339C1.26317 9.68995 1.25 9.65815 1.25 9.625V7.375C1.25 7.34185 1.26317 7.31005 1.28661 7.28661C1.31005 7.26317 1.34185 7.25 1.375 7.25H2.49125C2.67255 7.2498 2.84932 7.19328 2.99711 7.08826C3.1449 6.98324 3.25642 6.8349 3.31625 6.66375C3.38021 6.48252 3.45364 6.30477 3.53625 6.13125C3.61545 5.96768 3.64176 5.78351 3.61152 5.60431C3.58128 5.42511 3.49599 5.25977 3.3675 5.13125L2.57875 4.3425C2.55547 4.31908 2.5424 4.2874 2.5424 4.25437C2.5424 4.22135 2.55547 4.18967 2.57875 4.16625L4.16875 2.5775C4.19217 2.55422 4.22385 2.54115 4.25688 2.54115C4.2899 2.54115 4.32158 2.55422 4.345 2.5775L5.13375 3.36625C5.26227 3.49474 5.42761 3.58003 5.60681 3.61027C5.78601 3.64051 5.97018 3.6142 6.13375 3.535C6.30768 3.45235 6.48584 3.37891 6.6675 3.315C6.83775 3.25462 6.98513 3.14302 7.08943 2.99553C7.19372 2.84804 7.24981 2.67189 7.25 2.49125V1.375C7.25 1.34185 7.26317 1.31005 7.28661 1.28661C7.31005 1.26317 7.34185 1.25 7.375 1.25H9.625C9.65815 1.25 9.68995 1.26317 9.71339 1.28661C9.73683 1.31005 9.75 1.34185 9.75 1.375V2.49125C9.7502 2.67255 9.80672 2.84932 9.91174 2.99711C10.0168 3.1449 10.1651 3.25642 10.3363 3.31625C10.5175 3.38021 10.6952 3.45364 10.8687 3.53625C11.0323 3.61545 11.2165 3.64176 11.3957 3.61152C11.5749 3.58128 11.7402 3.49599 11.8687 3.3675L12.6575 2.57875C12.6809 2.55547 12.7126 2.5424 12.7456 2.5424C12.7786 2.5424 12.8103 2.55547 12.8337 2.57875L14.425 4.17C14.4483 4.19342 14.4613 4.2251 14.4613 4.25813C14.4613 4.29115 14.4483 4.32283 14.425 4.34625L13.6362 5.135C13.5078 5.26352 13.4225 5.42886 13.3922 5.60806C13.362 5.78726 13.3883 5.97143 13.4675 6.135C13.5502 6.30893 13.6236 6.48709 13.6875 6.66875C13.7475 6.83966 13.8591 6.98773 14.0069 7.09252C14.1547 7.1973 14.3313 7.25364 14.5125 7.25375H15.625C15.6582 7.25375 15.6899 7.26692 15.7134 7.29036C15.7368 7.3138 15.75 7.3456 15.75 7.37875V9.625Z"/>
</mask>
<path d="M15.625 6.5H14.5087C14.4828 6.49981 14.4575 6.49152 14.4364 6.47628C14.4154 6.46105 14.3996 6.43963 14.3912 6.415C14.3186 6.20867 14.2352 6.00631 14.1412 5.80875C14.1295 5.78544 14.1254 5.75904 14.1294 5.73326C14.1335 5.70748 14.1455 5.68361 14.1637 5.665L14.9525 4.875C15.0338 4.79375 15.0982 4.69728 15.1422 4.59112C15.1862 4.48495 15.2088 4.37116 15.2088 4.25625C15.2088 4.14134 15.1862 4.02755 15.1422 3.92138C15.0982 3.81522 15.0338 3.71875 14.9525 3.6375L13.3612 2.0475C13.28 1.96624 13.1835 1.90178 13.0774 1.8578C12.9712 1.81382 12.8574 1.79119 12.7425 1.79119C12.6276 1.79119 12.5138 1.81382 12.4076 1.8578C12.3015 1.90178 12.205 1.96624 12.1237 2.0475L11.335 2.83625C11.3164 2.85453 11.2925 2.86654 11.2667 2.87057C11.241 2.87461 11.2146 2.87047 11.1912 2.85875C10.9937 2.76481 10.7913 2.68137 10.585 2.60875C10.5604 2.60043 10.539 2.58465 10.5237 2.56359C10.5085 2.54253 10.5002 2.51724 10.5 2.49125V1.375C10.5 1.14294 10.4078 0.920376 10.2437 0.756282C10.0796 0.592187 9.85706 0.5 9.625 0.5H7.375C7.14294 0.5 6.92038 0.592187 6.75628 0.756282C6.59219 0.920376 6.5 1.14294 6.5 1.375V2.49125C6.49981 2.51724 6.49152 2.54253 6.47628 2.56359C6.46105 2.58465 6.43963 2.60043 6.415 2.60875C6.20867 2.6814 6.00631 2.76484 5.80875 2.85875C5.78544 2.87047 5.75904 2.87461 5.73326 2.87057C5.70748 2.86654 5.68361 2.85453 5.665 2.83625L4.875 2.0475C4.79375 1.96624 4.69728 1.90178 4.59112 1.8578C4.48495 1.81382 4.37116 1.79119 4.25625 1.79119C4.14134 1.79119 4.02755 1.81382 3.92138 1.8578C3.81522 1.90178 3.71875 1.96624 3.6375 2.0475L2.0475 3.63875C1.96624 3.72 1.90178 3.81647 1.8578 3.92263C1.81382 4.0288 1.79119 4.14259 1.79119 4.2575C1.79119 4.37241 1.81382 4.4862 1.8578 4.59237C1.90178 4.69853 1.96624 4.795 2.0475 4.87625L2.83625 5.665C2.85453 5.68361 2.86654 5.70748 2.87057 5.73326C2.87461 5.75904 2.87047 5.78544 2.85875 5.80875C2.76481 6.0063 2.68137 6.20866 2.60875 6.415C2.60043 6.43963 2.58465 6.46105 2.56359 6.47628C2.54253 6.49152 2.51724 6.49981 2.49125 6.5H1.375C1.14294 6.5 0.920376 6.59219 0.756282 6.75628C0.592187 6.92038 0.5 7.14294 0.5 7.375L0.5 9.625C0.5 9.85706 0.592187 10.0796 0.756282 10.2437C0.920376 10.4078 1.14294 10.5 1.375 10.5H2.49125C2.51724 10.5002 2.54253 10.5085 2.56359 10.5237C2.58465 10.539 2.60043 10.5604 2.60875 10.585C2.6814 10.7913 2.76484 10.9937 2.85875 11.1912C2.87047 11.2146 2.87461 11.241 2.87057 11.2667C2.86654 11.2925 2.85453 11.3164 2.83625 11.335L2.0475 12.125C1.96624 12.2063 1.90178 12.3027 1.8578 12.4089C1.81382 12.515 1.79119 12.6288 1.79119 12.7437C1.79119 12.8587 1.81382 12.9725 1.8578 13.0786C1.90178 13.1848 1.96624 13.2812 2.0475 13.3625L3.63875 14.9537C3.72 15.035 3.81647 15.0995 3.92263 15.1434C4.0288 15.1874 4.14259 15.2101 4.2575 15.2101C4.37241 15.2101 4.4862 15.1874 4.59237 15.1434C4.69853 15.0995 4.795 15.035 4.87625 14.9537L5.665 14.165C5.68361 14.1467 5.70748 14.1347 5.73326 14.1307C5.75904 14.1266 5.78544 14.1308 5.80875 14.1425C6.0063 14.2364 6.20866 14.3199 6.415 14.3925C6.43963 14.4008 6.46105 14.4166 6.47628 14.4377C6.49152 14.4587 6.49981 14.484 6.5 14.51V15.625C6.5 15.8571 6.59219 16.0796 6.75628 16.2437C6.92038 16.4078 7.14294 16.5 7.375 16.5H9.625C9.85706 16.5 10.0796 16.4078 10.2437 16.2437C10.4078 16.0796 10.5 15.8571 10.5 15.625V14.5087C10.5002 14.4828 10.5085 14.4575 10.5237 14.4364C10.539 14.4154 10.5604 14.3996 10.585 14.3912C10.7913 14.3186 10.9937 14.2352 11.1912 14.1412C11.2146 14.1295 11.241 14.1254 11.2667 14.1294C11.2925 14.1335 11.3164 14.1455 11.335 14.1637L12.125 14.9525C12.2063 15.0338 12.3027 15.0982 12.4089 15.1422C12.515 15.1862 12.6288 15.2088 12.7437 15.2088C12.8587 15.2088 12.9725 15.1862 13.0786 15.1422C13.1848 15.0982 13.2812 15.0338 13.3625 14.9525L14.9537 13.3612C15.035 13.28 15.0995 13.1835 15.1434 13.0774C15.1874 12.9712 15.2101 12.8574 15.2101 12.7425C15.2101 12.6276 15.1874 12.5138 15.1434 12.4076C15.0995 12.3015 15.035 12.205 14.9537 12.1237L14.165 11.335C14.1467 11.3164 14.1347 11.2925 14.1307 11.2667C14.1266 11.241 14.1308 11.2146 14.1425 11.1912C14.2364 10.9937 14.3199 10.7913 14.3925 10.585C14.4008 10.5604 14.4166 10.539 14.4377 10.5237C14.4587 10.5085 14.484 10.5002 14.51 10.5H15.625C15.8571 10.5 16.0796 10.4078 16.2437 10.2437C16.4078 10.0796 16.5 9.85706 16.5 9.625V7.375C16.5 7.14294 16.4078 6.92038 16.2437 6.75628C16.0796 6.59219 15.8571 6.5 15.625 6.5ZM15.75 9.625C15.75 9.65815 15.7368 9.68995 15.7134 9.71339C15.6899 9.73683 15.6582 9.75 15.625 9.75H14.5087C14.3274 9.7502 14.1507 9.80672 14.0029 9.91174C13.8551 10.0168 13.7436 10.1651 13.6838 10.3363C13.6198 10.5175 13.5464 10.6952 13.4637 10.8687C13.3845 11.0323 13.3582 11.2165 13.3885 11.3957C13.4187 11.5749 13.504 11.7402 13.6325 11.8687L14.4213 12.6575C14.4445 12.6809 14.4576 12.7126 14.4576 12.7456C14.4576 12.7786 14.4445 12.8103 14.4213 12.8337L12.8313 14.4225C12.8078 14.4458 12.7761 14.4588 12.7431 14.4588C12.7101 14.4588 12.6784 14.4458 12.655 14.4225L11.8663 13.6337C11.7377 13.5053 11.5724 13.42 11.3932 13.3897C11.214 13.3595 11.0298 13.3858 10.8663 13.465C10.6923 13.5477 10.5142 13.6211 10.3325 13.685C10.1616 13.745 10.0135 13.8566 9.90873 14.0044C9.80395 14.1522 9.74761 14.3288 9.7475 14.51V15.625C9.7475 15.6582 9.73433 15.6899 9.71089 15.7134C9.68745 15.7368 9.65565 15.75 9.6225 15.75H7.375C7.34185 15.75 7.31005 15.7368 7.28661 15.7134C7.26317 15.6899 7.25 15.6582 7.25 15.625V14.5087C7.2498 14.3274 7.19328 14.1507 7.08826 14.0029C6.98324 13.8551 6.8349 13.7436 6.66375 13.6838C6.48252 13.6198 6.30477 13.5464 6.13125 13.4637C5.96768 13.3845 5.78351 13.3582 5.60431 13.3885C5.42511 13.4187 5.25977 13.504 5.13125 13.6325L4.3425 14.4213C4.31908 14.4445 4.2874 14.4576 4.25437 14.4576C4.22135 14.4576 4.18967 14.4445 4.16625 14.4213L2.5775 12.8313C2.55422 12.8078 2.54115 12.7761 2.54115 12.7431C2.54115 12.7101 2.55422 12.6784 2.5775 12.655L3.36625 11.8663C3.49474 11.7377 3.58003 11.5724 3.61027 11.3932C3.64051 11.214 3.6142 11.0298 3.535 10.8663C3.45235 10.6923 3.37891 10.5142 3.315 10.3325C3.25462 10.1623 3.14302 10.0149 2.99553 9.91057C2.84804 9.80628 2.67189 9.75019 2.49125 9.75H1.375C1.34185 9.75 1.31005 9.73683 1.28661 9.71339C1.26317 9.68995 1.25 9.65815 1.25 9.625V7.375C1.25 7.34185 1.26317 7.31005 1.28661 7.28661C1.31005 7.26317 1.34185 7.25 1.375 7.25H2.49125C2.67255 7.2498 2.84932 7.19328 2.99711 7.08826C3.1449 6.98324 3.25642 6.8349 3.31625 6.66375C3.38021 6.48252 3.45364 6.30477 3.53625 6.13125C3.61545 5.96768 3.64176 5.78351 3.61152 5.60431C3.58128 5.42511 3.49599 5.25977 3.3675 5.13125L2.57875 4.3425C2.55547 4.31908 2.5424 4.2874 2.5424 4.25437C2.5424 4.22135 2.55547 4.18967 2.57875 4.16625L4.16875 2.5775C4.19217 2.55422 4.22385 2.54115 4.25688 2.54115C4.2899 2.54115 4.32158 2.55422 4.345 2.5775L5.13375 3.36625C5.26227 3.49474 5.42761 3.58003 5.60681 3.61027C5.78601 3.64051 5.97018 3.6142 6.13375 3.535C6.30768 3.45235 6.48584 3.37891 6.6675 3.315C6.83775 3.25462 6.98513 3.14302 7.08943 2.99553C7.19372 2.84804 7.24981 2.67189 7.25 2.49125V1.375C7.25 1.34185 7.26317 1.31005 7.28661 1.28661C7.31005 1.26317 7.34185 1.25 7.375 1.25H9.625C9.65815 1.25 9.68995 1.26317 9.71339 1.28661C9.73683 1.31005 9.75 1.34185 9.75 1.375V2.49125C9.7502 2.67255 9.80672 2.84932 9.91174 2.99711C10.0168 3.1449 10.1651 3.25642 10.3363 3.31625C10.5175 3.38021 10.6952 3.45364 10.8687 3.53625C11.0323 3.61545 11.2165 3.64176 11.3957 3.61152C11.5749 3.58128 11.7402 3.49599 11.8687 3.3675L12.6575 2.57875C12.6809 2.55547 12.7126 2.5424 12.7456 2.5424C12.7786 2.5424 12.8103 2.55547 12.8337 2.57875L14.425 4.17C14.4483 4.19342 14.4613 4.2251 14.4613 4.25813C14.4613 4.29115 14.4483 4.32283 14.425 4.34625L13.6362 5.135C13.5078 5.26352 13.4225 5.42886 13.3922 5.60806C13.362 5.78726 13.3883 5.97143 13.4675 6.135C13.5502 6.30893 13.6236 6.48709 13.6875 6.66875C13.7475 6.83966 13.8591 6.98773 14.0069 7.09252C14.1547 7.1973 14.3313 7.25364 14.5125 7.25375H15.625C15.6582 7.25375 15.6899 7.26692 15.7134 7.29036C15.7368 7.3138 15.75 7.3456 15.75 7.37875V9.625Z" stroke="#1D1D1D" stroke-width="2" mask="url(#path-3-inside-2_152_877)"/>
</g>
</g>
<defs>
<clipPath id="clip0_152_877">
<rect width="16" height="16" fill="white" transform="translate(0.5 0.5)"/>
</clipPath>
</defs>
</svg>
