<svg width="22" height="19" viewBox="0 0 22 19" fill="none" xmlns="http://www.w3.org/2000/svg">
<g id="Group">
<g id="Group_2">
<g id="Group_3">
<path id="Vector" d="M7.5 16.5V16H7H2C1.16777 16 0.5 15.3255 0.5 14.5V2.5C0.5 1.66614 1.16614 1 2 1H20C20.8253 1 21.4998 1.66755 21.5 2.49958C21.5 2.49972 21.5 2.49986 21.5 2.5L21.49 14.4996V14.5C21.49 15.3271 20.8206 16 20 16H15H14.5V16.5V18H7.5V16.5ZM20 15H20.5V14.5V2.5V2H20H2H1.5V2.5V14.5V15H2H20ZM14.5 8V9H7.5V8H14.5Z" fill="#1D1D1D" stroke="#081421"/>
</g>
</g>
</g>
</svg>
