<svg width="32" height="32" viewBox="0 0 32 32" fill="none" xmlns="http://www.w3.org/2000/svg">
<path d="M13.3999 14.1427L3.97326 23.5693C3.72532 23.817 3.52863 24.1111 3.39443 24.4348C3.26024 24.7585 3.19116 25.1056 3.19116 25.456C3.19116 25.8064 3.26024 26.1534 3.39443 26.4772C3.52863 26.8009 3.72532 27.095 3.97326 27.3427C4.47333 27.8426 5.15149 28.1234 5.85859 28.1234C6.5657 28.1234 7.24385 27.8426 7.74393 27.3427L17.1706 17.9133M22.9239 18.4L28.0946 23.5707C28.5945 24.0707 28.8754 24.7489 28.8754 25.456C28.8754 26.1631 28.5945 26.8413 28.0946 27.3413C27.5945 27.8413 26.9164 28.1221 26.2093 28.1221C25.5022 28.1221 24.824 27.8413 24.3239 27.3413L16.0453 19.064M8.97726 7.87199L6.14659 8.81333L3.31993 4.09999L5.20526 2.21466L9.91993 5.04266L8.97726 7.87199ZM8.97726 7.87199L12.7506 11.6453" stroke="#163A5F" stroke-width="2" stroke-linecap="round" stroke-linejoin="round"/>
<path d="M13.3999 14.1427C12.2746 11.272 12.4946 7.50532 14.8146 5.18532C17.1346 2.86532 21.4146 2.35732 23.7706 3.77198L19.7172 7.82532L19.3399 11.9733L23.4879 11.5973L27.5412 7.54265C28.9572 9.89998 28.4479 14.18 26.1279 16.4986C23.8079 18.8187 20.0426 19.0387 17.1719 17.9133" stroke="#163A5F" stroke-width="2" stroke-linecap="round" stroke-linejoin="round"/>
</svg>
