<svg width="24" height="25" viewBox="0 0 24 25" fill="none" xmlns="http://www.w3.org/2000/svg">
<g id="icon/track" clip-path="url(#clip0_219_812)">
<path id="Vector" d="M19.07 5.43L17.66 6.84C19.1 8.29 20 10.29 20 12.5C20 16.92 16.42 20.5 12 20.5C7.58 20.5 4 16.92 4 12.5C4 8.42 7.05 5.06 11 4.57V6.59C8.16 7.07 6 9.53 6 12.5C6 15.81 8.69 18.5 12 18.5C15.31 18.5 18 15.81 18 12.5C18 10.84 17.33 9.34 16.24 8.26L14.83 9.67C15.55 10.4 16 11.4 16 12.5C16 14.71 14.21 16.5 12 16.5C9.79 16.5 8 14.71 8 12.5C8 10.64 9.28 9.09 11 8.64V10.78C10.4 11.13 10 11.76 10 12.5C10 13.6 10.9 14.5 12 14.5C13.1 14.5 14 13.6 14 12.5C14 11.76 13.6 11.12 13 10.78V2.5H12C6.48 2.5 2 6.98 2 12.5C2 18.02 6.48 22.5 12 22.5C17.52 22.5 22 18.02 22 12.5C22 9.74 20.88 7.24 19.07 5.43Z" fill="#1D1D1D"/>
<path id="Vector_2" d="M15.5158 9.69136L16.2255 8.98158C17.0227 9.93082 17.5 11.1573 17.5 12.5C17.5 15.5339 15.0339 18 12 18C8.96614 18 6.5 15.5339 6.5 12.5C6.5 9.77917 8.47875 7.52322 11.0833 7.08301L11.5 7.01258V6.59V4.57V4.00414L10.9384 4.0738C6.74127 4.59447 3.5 8.1644 3.5 12.5C3.5 17.1961 7.30386 21 12 21C16.6961 21 20.5 17.1961 20.5 12.5C20.5 10.3313 19.684 8.35338 18.3557 6.85141L19.0608 6.14634C20.5774 7.83036 21.5 10.0578 21.5 12.5C21.5 17.7439 17.2439 22 12 22C6.75614 22 2.5 17.7439 2.5 12.5C2.5 7.25614 6.75614 3 12 3H12.5V10.78V11.0714L12.7535 11.215C13.2021 11.4692 13.5 11.946 13.5 12.5C13.5 13.3239 12.8239 14 12 14C11.1761 14 10.5 13.3239 10.5 12.5C10.5 11.9499 10.7948 11.4785 11.2519 11.2119L11.5 11.0672V10.78V8.64V7.99236L10.8734 8.15628C8.94318 8.66129 7.5 10.4027 7.5 12.5C7.5 14.9861 9.51386 17 12 17C14.4861 17 16.5 14.9861 16.5 12.5C16.5 11.4396 16.1285 10.4635 15.5158 9.69136Z" fill="#1D1D1D" stroke="#081421"/>
</g>
<defs>
<clipPath id="clip0_219_812">
<rect width="24" height="24" fill="white" transform="translate(0 0.5)"/>
</clipPath>
</defs>
</svg>
